<svg xmlns="http://www.w3.org/2000/svg" viewBox="-1253.708 870.953 23.275 20.62"><defs><style>.a{fill:#fff;}</style></defs><path class="a" d="M11.123,10.91l-2.9,3.622v1.014c0,2.9,4.732,2.9,4.732,0,0,2.9,4.539,2.9,4.539,0,0,2.9,4.732,2.9,4.732,0,0,2.9,4.54,2.9,4.54,0,0,2.9,4.732,2.9,4.732,0V14.532L28.6,10.91H11.123Zm1.787,6.374a4.409,4.409,0,0,1-.435.483,2.953,2.953,0,0,1-1.883.628,1.812,1.812,0,0,1-.531-.048V31.53H29.618V18.347a1.987,1.987,0,0,1-.531.048,2.954,2.954,0,0,1-1.883-.628,4.4,4.4,0,0,1-.434-.483,2.1,2.1,0,0,1-.435.483,2.916,2.916,0,0,1-1.835.628,2.737,2.737,0,0,1-1.835-.628,4.453,4.453,0,0,1-.435-.483,4.361,4.361,0,0,1-.435.483,3.171,3.171,0,0,1-1.98.676,2.954,2.954,0,0,1-1.883-.628,4.362,4.362,0,0,1-.435-.483,2.07,2.07,0,0,1-.435.483,2.917,2.917,0,0,1-1.835.628,2.734,2.734,0,0,1-1.835-.628,4.362,4.362,0,0,1-.435-.483Zm2.608,1.98c1.111,0,1.593.29,2.173,1.449h4.3c.242-1.159.725-1.449,2.173-1.449a3.738,3.738,0,0,1,3.284,2.559l1.449,5.65a1.93,1.93,0,0,1-1.98,2.511c-1.014,0-2.318-.676-3.187-2.511H16c-.869,1.883-2.173,2.511-3.187,2.511a1.93,1.93,0,0,1-1.98-2.511l1.449-5.65a3.737,3.737,0,0,1,3.284-2.559Zm4.3,1.98-3.429,3.622h1.449V26.7h4.008V24.914h1.448Z" transform="translate(-1261.933 860.043)"/></svg>