<svg xmlns="http://www.w3.org/2000/svg" viewBox="2736 6630.336 103.776 26.188"><defs><style>.a{fill:#705ba8;}.b{fill:#351c75;stroke:#705ba8;stroke-miterlimit:10;}.c{fill:#f6b26b;}.d{fill:#f9cb9c;}.e{fill:#fce5cd;}.f{fill:#fff;}</style></defs><g transform="translate(2736 6630.336)"><rect class="a" width="11.398" height="8.289" transform="translate(15.8 12.829)"/><rect class="b" width="11.398" height="11.398" transform="translate(1.295 9.72)"/><path class="c" d="M16.577,45.6H0L8.289,29.02" transform="translate(0 -24.358)"/><path class="d" d="M45.42,21.24H24.18L34.8,0" transform="translate(-20.295)"/><path class="e" d="M101.306,57.776H87.06L94.184,43.53" transform="translate(-73.073 -36.536)"/><path d="M248.463,50.5a4.742,4.742,0,0,1,.112,1.125,4.963,4.963,0,0,1-.112,1.125h-2.249a4.935,4.935,0,0,1-.112-1.125,4.714,4.714,0,0,1,.112-1.125h-.842a4.924,4.924,0,0,1-.112-1.125,4.706,4.706,0,0,1,.112-1.125h-.842a4.934,4.934,0,0,1-.112-1.125A4.715,4.715,0,0,1,244.53,46h-2.8a4.734,4.734,0,0,1,.112,1.125,4.953,4.953,0,0,1-.112,1.125,4.734,4.734,0,0,1,.112,1.125,4.953,4.953,0,0,1-.112,1.125,4.732,4.732,0,0,1,.112,1.125,4.953,4.953,0,0,1-.112,1.125h-2.249a4.933,4.933,0,0,1-.112-1.125,4.713,4.713,0,0,1,.112-1.125,4.933,4.933,0,0,1-.112-1.125,4.715,4.715,0,0,1,.112-1.125,4.933,4.933,0,0,1-.112-1.125A4.713,4.713,0,0,1,239.477,46a4.933,4.933,0,0,1-.112-1.125,4.713,4.713,0,0,1,.112-1.125,4.933,4.933,0,0,1-.112-1.125,4.715,4.715,0,0,1,.112-1.125,4.933,4.933,0,0,1-.112-1.125,4.713,4.713,0,0,1,.112-1.125,4.933,4.933,0,0,1-.112-1.125A4.713,4.713,0,0,1,239.477,37h7.861a4.74,4.74,0,0,1,.112,1.125,4.964,4.964,0,0,1-.112,1.125h1.125a4.742,4.742,0,0,1,.112,1.125,4.962,4.962,0,0,1-.112,1.125H247.9a4.744,4.744,0,0,1,.112,1.125,4.965,4.965,0,0,1-.112,1.125h-1.689a4.742,4.742,0,0,1,.112,1.125A4.964,4.964,0,0,1,246.214,46h.561a4.743,4.743,0,0,1,.112,1.125,4.963,4.963,0,0,1-.112,1.125h.842a4.744,4.744,0,0,1,.112,1.125,4.965,4.965,0,0,1-.112,1.125Zm-2.923-7.861a4.705,4.705,0,0,1,.112-1.125,4.924,4.924,0,0,1-.112-1.125,4.705,4.705,0,0,1,.112-1.125h-3.927a4.734,4.734,0,0,1,.112,1.125,4.953,4.953,0,0,1-.112,1.125,4.734,4.734,0,0,1,.112,1.125,4.955,4.955,0,0,1-.112,1.125h3.928A4.924,4.924,0,0,1,245.541,42.635Z" transform="translate(-200.906 -31.055)"/><path d="M318.325,69.5a4.741,4.741,0,0,1,.112,1.125,4.961,4.961,0,0,1-.112,1.125h-5.892a4.735,4.735,0,0,1,.112,1.125A4.957,4.957,0,0,1,312.434,74H317.2a4.741,4.741,0,0,1,.112,1.125,4.964,4.964,0,0,1-.112,1.125h-5.61a4.933,4.933,0,0,1-.112-1.125A4.714,4.714,0,0,1,311.592,74h-1.4a4.935,4.935,0,0,1-.112-1.125,4.717,4.717,0,0,1,.112-1.125h-.842a4.935,4.935,0,0,1-.112-1.125,4.714,4.714,0,0,1,.112-1.125h.842a4.935,4.935,0,0,1-.112-1.125,4.714,4.714,0,0,1,.112-1.125h1.4a4.933,4.933,0,0,1-.112-1.125A4.714,4.714,0,0,1,311.592,65h5.61a4.741,4.741,0,0,1,.112,1.125,4.964,4.964,0,0,1-.112,1.125h1.125a4.741,4.741,0,0,1,.112,1.125A4.967,4.967,0,0,1,318.325,69.5Zm-2.357-1.125a4.714,4.714,0,0,1,.112-1.125h-3.647a4.733,4.733,0,0,1,.112,1.125,4.957,4.957,0,0,1-.112,1.125h3.647A4.935,4.935,0,0,1,315.968,68.374Z" transform="translate(-259.551 -54.557)"/><path d="M392.911,41.579a4.744,4.744,0,0,1,.112,1.125,4.964,4.964,0,0,1-.112,1.125h-3.374a4.733,4.733,0,0,1,.112,1.125,4.955,4.955,0,0,1-.112,1.125,4.735,4.735,0,0,1,.112,1.125,4.955,4.955,0,0,1-.112,1.125,4.735,4.735,0,0,1,.112,1.125,4.955,4.955,0,0,1-.112,1.125h2.249A4.741,4.741,0,0,1,391.9,51.7a4.964,4.964,0,0,1-.112,1.125h-5.609a4.936,4.936,0,0,1-.112-1.125,4.714,4.714,0,0,1,.112-1.125H387.3a4.936,4.936,0,0,1-.112-1.125,4.717,4.717,0,0,1,.112-1.125,4.936,4.936,0,0,1-.112-1.125,4.714,4.714,0,0,1,.112-1.125,4.936,4.936,0,0,1-.112-1.125,4.714,4.714,0,0,1,.112-1.125h-1.125a4.936,4.936,0,0,1-.112-1.125,4.714,4.714,0,0,1,.112-1.125H387.3a4.936,4.936,0,0,1-.112-1.125,4.714,4.714,0,0,1,.112-1.125h1.125a4.936,4.936,0,0,1-.112-1.125,4.716,4.716,0,0,1,.112-1.125h4.489a4.741,4.741,0,0,1,.112,1.125,4.964,4.964,0,0,1-.112,1.125h-3.374a4.735,4.735,0,0,1,.112,1.125,4.955,4.955,0,0,1-.112,1.125Z" transform="translate(-324.037 -31.123)"/><path d="M452.124,74h2.805a4.743,4.743,0,0,1,.112,1.125,4.966,4.966,0,0,1-.112,1.125H450.44a4.933,4.933,0,0,1-.112-1.125A4.712,4.712,0,0,1,450.44,74h-1.4a4.936,4.936,0,0,1-.112-1.125,4.716,4.716,0,0,1,.112-1.125,4.934,4.934,0,0,1-.112-1.125,4.712,4.712,0,0,1,.112-1.125,4.936,4.936,0,0,1-.112-1.125,4.714,4.714,0,0,1,.112-1.125,4.936,4.936,0,0,1-.112-1.125A4.716,4.716,0,0,1,449.037,65h2.249a4.733,4.733,0,0,1,.112,1.125,4.955,4.955,0,0,1-.112,1.125,4.733,4.733,0,0,1,.112,1.125,4.956,4.956,0,0,1-.112,1.125,4.733,4.733,0,0,1,.112,1.125,4.954,4.954,0,0,1-.112,1.125h.842a4.733,4.733,0,0,1,.112,1.125A4.952,4.952,0,0,1,452.124,74Zm6-5.623a4.966,4.966,0,0,1-.112,1.125,4.741,4.741,0,0,1,.112,1.125,4.961,4.961,0,0,1-.112,1.125,4.743,4.743,0,0,1,.112,1.125A4.964,4.964,0,0,1,458.014,74a4.74,4.74,0,0,1,.112,1.125,4.966,4.966,0,0,1-.112,1.125h-2.249a4.935,4.935,0,0,1-.112-1.125A4.714,4.714,0,0,1,455.764,74h-.835a4.922,4.922,0,0,1-.112-1.125,4.706,4.706,0,0,1,.112-1.125h.842a4.934,4.934,0,0,1-.112-1.125,4.712,4.712,0,0,1,.112-1.125,4.935,4.935,0,0,1-.112-1.125,4.713,4.713,0,0,1,.112-1.125,4.934,4.934,0,0,1-.112-1.125A4.717,4.717,0,0,1,455.771,65h2.249a4.744,4.744,0,0,1,.112,1.125,4.964,4.964,0,0,1-.112,1.125A4.742,4.742,0,0,1,458.126,68.374Z" transform="translate(-376.797 -54.557)"/><path d="M527.968,68.374a4.964,4.964,0,0,1-.112,1.125,4.736,4.736,0,0,1,.112,1.125,4.961,4.961,0,0,1-.112,1.125,4.743,4.743,0,0,1,.113,1.125A4.968,4.968,0,0,1,527.856,74a4.739,4.739,0,0,1,.112,1.125,4.961,4.961,0,0,1-.112,1.125h-1.125a4.739,4.739,0,0,1,.112,1.125,4.971,4.971,0,0,1-.112,1.125h-1.125a4.739,4.739,0,0,1,.112,1.125,4.968,4.968,0,0,1-.112,1.125H521.13a4.94,4.94,0,0,1-.112-1.125,4.714,4.714,0,0,1,.112-1.125H524.5a4.936,4.936,0,0,1-.112-1.125,4.714,4.714,0,0,1,.112-1.125h1.125a4.933,4.933,0,0,1-.112-1.125A4.714,4.714,0,0,1,525.629,74H524.5a4.933,4.933,0,0,1-.112-1.125,4.714,4.714,0,0,1,.112-1.125h1.125a4.933,4.933,0,0,1-.112-1.125,4.714,4.714,0,0,1,.112-1.125,4.933,4.933,0,0,1-.112-1.125,4.714,4.714,0,0,1,.112-1.125h-3.647a4.73,4.73,0,0,1,.112,1.125,4.954,4.954,0,0,1-.112,1.125h-.842a4.733,4.733,0,0,1,.112,1.125,4.957,4.957,0,0,1-.112,1.125h.842a4.733,4.733,0,0,1,.112,1.125A4.954,4.954,0,0,1,521.982,74h2.524a4.727,4.727,0,0,1,.112,1.125,4.95,4.95,0,0,1-.112,1.125h-3.374a4.933,4.933,0,0,1-.112-1.125A4.714,4.714,0,0,1,521.132,74h-1.4a4.933,4.933,0,0,1-.112-1.125,4.711,4.711,0,0,1,.112-1.125h-.842a4.933,4.933,0,0,1-.112-1.125,4.711,4.711,0,0,1,.112-1.125h.842a4.933,4.933,0,0,1-.112-1.125,4.711,4.711,0,0,1,.112-1.125h1.4a4.933,4.933,0,0,1-.112-1.125A4.717,4.717,0,0,1,521.132,65h6.733a4.74,4.74,0,0,1,.112,1.125,4.961,4.961,0,0,1-.112,1.125A4.739,4.739,0,0,1,527.968,68.374Z" transform="translate(-435.425 -54.557)"/><path d="M597.7,69.5a4.739,4.739,0,0,1,.112,1.125,4.961,4.961,0,0,1-.112,1.125h-5.892a4.733,4.733,0,0,1,.112,1.125A4.95,4.95,0,0,1,591.812,74h4.769a4.743,4.743,0,0,1,.112,1.125,4.964,4.964,0,0,1-.112,1.125h-5.609a4.933,4.933,0,0,1-.112-1.125A4.714,4.714,0,0,1,590.972,74h-1.4a4.936,4.936,0,0,1-.112-1.125,4.717,4.717,0,0,1,.112-1.125h-.842a4.933,4.933,0,0,1-.112-1.125,4.714,4.714,0,0,1,.112-1.125h.842a4.936,4.936,0,0,1-.112-1.125,4.714,4.714,0,0,1,.112-1.125h1.4a4.933,4.933,0,0,1-.112-1.125A4.714,4.714,0,0,1,590.972,65h5.61a4.739,4.739,0,0,1,.112,1.125,4.961,4.961,0,0,1-.112,1.125h1.125a4.74,4.74,0,0,1,.113,1.125A4.966,4.966,0,0,1,597.7,69.5Zm-2.357-1.125a4.717,4.717,0,0,1,.112-1.125h-3.647a4.73,4.73,0,0,1,.112,1.125,4.95,4.95,0,0,1-.112,1.125h3.647a4.936,4.936,0,0,1-.111-1.125Z" transform="translate(-494.044 -54.557)"/><path class="f" d="M244.64,46.646a4.74,4.74,0,0,1,.112,1.125,4.963,4.963,0,0,1-.112,1.125h-2.249a4.935,4.935,0,0,1-.112-1.125,4.714,4.714,0,0,1,.112-1.125h-.829a4.924,4.924,0,0,1-.112-1.125,4.7,4.7,0,0,1,.112-1.125h-.842a4.935,4.935,0,0,1-.112-1.125,4.716,4.716,0,0,1,.112-1.125h-2.813a4.734,4.734,0,0,1,.112,1.125,4.953,4.953,0,0,1-.112,1.125,4.733,4.733,0,0,1,.112,1.125,4.953,4.953,0,0,1-.112,1.125,4.732,4.732,0,0,1,.112,1.125,4.953,4.953,0,0,1-.112,1.125h-2.249a4.935,4.935,0,0,1-.112-1.125,4.713,4.713,0,0,1,.112-1.125,4.934,4.934,0,0,1-.112-1.125,4.717,4.717,0,0,1,.112-1.125,4.935,4.935,0,0,1-.112-1.125,4.713,4.713,0,0,1,.112-1.125,4.934,4.934,0,0,1-.112-1.125,4.713,4.713,0,0,1,.112-1.125,4.934,4.934,0,0,1-.112-1.125,4.717,4.717,0,0,1,.112-1.125,4.935,4.935,0,0,1-.112-1.125,4.713,4.713,0,0,1,.112-1.125,4.934,4.934,0,0,1-.112-1.125,4.713,4.713,0,0,1,.112-1.125h7.855a4.741,4.741,0,0,1,.112,1.125,4.964,4.964,0,0,1-.112,1.125h1.125a4.742,4.742,0,0,1,.112,1.125,4.963,4.963,0,0,1-.112,1.125h-.561a4.743,4.743,0,0,1,.112,1.125,4.965,4.965,0,0,1-.112,1.125H242.4a4.742,4.742,0,0,1,.112,1.125,4.965,4.965,0,0,1-.112,1.125h.561a4.743,4.743,0,0,1,.112,1.125,4.964,4.964,0,0,1-.112,1.125h.842a4.743,4.743,0,0,1,.112,1.125,4.964,4.964,0,0,1-.112,1.125Zm-2.918-7.855a4.705,4.705,0,0,1,.112-1.125,4.924,4.924,0,0,1-.112-1.125,4.705,4.705,0,0,1,.112-1.125h-3.928a4.734,4.734,0,0,1,.112,1.125,4.953,4.953,0,0,1-.112,1.125,4.733,4.733,0,0,1,.112,1.125,4.955,4.955,0,0,1-.112,1.125h3.928A4.924,4.924,0,0,1,241.722,38.791Z" transform="translate(-197.7 -27.824)"/><path class="f" d="M314.514,65.709a4.741,4.741,0,0,1,.112,1.125,4.962,4.962,0,0,1-.112,1.125h-5.892a4.735,4.735,0,0,1,.112,1.125,4.955,4.955,0,0,1-.112,1.125h4.767a4.741,4.741,0,0,1,.112,1.125,4.964,4.964,0,0,1-.112,1.125h-5.607a4.933,4.933,0,0,1-.112-1.125,4.714,4.714,0,0,1,.112-1.125h-1.4a4.933,4.933,0,0,1-.112-1.125,4.716,4.716,0,0,1,.112-1.125h-.842a4.936,4.936,0,0,1-.112-1.125,4.714,4.714,0,0,1,.112-1.125h.842a4.933,4.933,0,0,1-.112-1.125,4.712,4.712,0,0,1,.112-1.125h1.4a4.933,4.933,0,0,1-.112-1.125,4.714,4.714,0,0,1,.112-1.125h5.607a4.743,4.743,0,0,1,.112,1.125,4.964,4.964,0,0,1-.112,1.125h1.125a4.741,4.741,0,0,1,.112,1.125A4.966,4.966,0,0,1,314.514,65.709Zm-2.357-1.125a4.712,4.712,0,0,1,.112-1.125h-3.647a4.733,4.733,0,0,1,.112,1.125,4.955,4.955,0,0,1-.112,1.125h3.642a4.933,4.933,0,0,1-.106-1.123Z" transform="translate(-256.353 -51.376)"/><path class="f" d="M389.133,37.769a4.741,4.741,0,0,1,.112,1.125,4.963,4.963,0,0,1-.112,1.125h-3.374a4.728,4.728,0,0,1,.112,1.125,4.952,4.952,0,0,1-.112,1.125,4.732,4.732,0,0,1,.112,1.125,4.952,4.952,0,0,1-.112,1.125,4.732,4.732,0,0,1,.112,1.125,4.952,4.952,0,0,1-.112,1.125h2.249a4.741,4.741,0,0,1,.112,1.125,4.966,4.966,0,0,1-.112,1.125h-5.6a4.933,4.933,0,0,1-.112-1.125,4.712,4.712,0,0,1,.112-1.125h1.125a4.933,4.933,0,0,1-.112-1.125,4.716,4.716,0,0,1,.112-1.125,4.933,4.933,0,0,1-.112-1.125,4.712,4.712,0,0,1,.112-1.125,4.933,4.933,0,0,1-.112-1.125,4.712,4.712,0,0,1,.112-1.125h-1.125a4.933,4.933,0,0,1-.112-1.125,4.716,4.716,0,0,1,.112-1.125h1.125a4.933,4.933,0,0,1-.112-1.125,4.712,4.712,0,0,1,.112-1.125h1.125a4.935,4.935,0,0,1-.112-1.125,4.716,4.716,0,0,1,.112-1.125h4.489a4.74,4.74,0,0,1,.112,1.125,4.964,4.964,0,0,1-.112,1.125h-3.374a4.732,4.732,0,0,1,.112,1.125,4.952,4.952,0,0,1-.112,1.125Z" transform="translate(-320.873 -27.925)"/><path class="f" d="M448.3,70.147h2.805a4.743,4.743,0,0,1,.112,1.125,4.963,4.963,0,0,1-.112,1.125H446.62a4.935,4.935,0,0,1-.112-1.125,4.716,4.716,0,0,1,.112-1.125h-1.4a4.935,4.935,0,0,1-.112-1.125,4.716,4.716,0,0,1,.112-1.125,4.935,4.935,0,0,1-.112-1.125,4.714,4.714,0,0,1,.112-1.125,4.935,4.935,0,0,1-.112-1.125,4.714,4.714,0,0,1,.112-1.125,4.935,4.935,0,0,1-.112-1.125,4.716,4.716,0,0,1,.112-1.125h2.249a4.733,4.733,0,0,1,.112,1.125,4.955,4.955,0,0,1-.112,1.125,4.731,4.731,0,0,1,.112,1.125,4.952,4.952,0,0,1-.112,1.125,4.732,4.732,0,0,1,.112,1.125,4.952,4.952,0,0,1-.112,1.125h.834a4.733,4.733,0,0,1,.112,1.125A4.952,4.952,0,0,1,448.3,70.147Zm6-5.61a4.964,4.964,0,0,1-.112,1.125,4.743,4.743,0,0,1,.112,1.125,4.963,4.963,0,0,1-.112,1.125,4.743,4.743,0,0,1,.112,1.125,4.964,4.964,0,0,1-.112,1.125,4.743,4.743,0,0,1,.112,1.125,4.964,4.964,0,0,1-.112,1.125h-2.249a4.931,4.931,0,0,1-.112-1.125,4.714,4.714,0,0,1,.112-1.125H451.1a4.924,4.924,0,0,1-.112-1.125,4.706,4.706,0,0,1,.112-1.125h.842a4.931,4.931,0,0,1-.112-1.125,4.714,4.714,0,0,1,.112-1.125,4.931,4.931,0,0,1-.112-1.125,4.714,4.714,0,0,1,.112-1.125,4.931,4.931,0,0,1-.112-1.125,4.714,4.714,0,0,1,.112-1.125h2.249a4.743,4.743,0,0,1,.112,1.125,4.964,4.964,0,0,1-.112,1.125,4.742,4.742,0,0,1,.116,1.123Z" transform="translate(-373.591 -51.325)"/><path class="f" d="M524.156,64.594a4.964,4.964,0,0,1-.112,1.125,4.74,4.74,0,0,1,.112,1.125,4.964,4.964,0,0,1-.112,1.125,4.743,4.743,0,0,1,.112,1.125,4.964,4.964,0,0,1-.112,1.125,4.74,4.74,0,0,1,.112,1.125,4.964,4.964,0,0,1-.112,1.125h-1.125a4.739,4.739,0,0,1,.112,1.125,4.964,4.964,0,0,1-.112,1.125h-1.125a4.739,4.739,0,0,1,.112,1.125,4.964,4.964,0,0,1-.112,1.125h-4.483a4.94,4.94,0,0,1-.112-1.125,4.711,4.711,0,0,1,.112-1.125h3.374a4.936,4.936,0,0,1-.112-1.125,4.708,4.708,0,0,1,.112-1.125h1.125a4.936,4.936,0,0,1-.112-1.125,4.714,4.714,0,0,1,.112-1.125h-1.125a4.933,4.933,0,0,1-.112-1.125,4.714,4.714,0,0,1,.112-1.125h1.125a4.936,4.936,0,0,1-.112-1.125,4.714,4.714,0,0,1,.112-1.125,4.936,4.936,0,0,1-.112-1.125,4.714,4.714,0,0,1,.112-1.125h-3.647a4.73,4.73,0,0,1,.112,1.125,4.954,4.954,0,0,1-.112,1.125h-.842a4.733,4.733,0,0,1,.112,1.125,4.95,4.95,0,0,1-.112,1.125h.842a4.733,4.733,0,0,1,.112,1.125,4.954,4.954,0,0,1-.112,1.125h2.524a4.733,4.733,0,0,1,.112,1.125,4.954,4.954,0,0,1-.112,1.125h-3.374a4.933,4.933,0,0,1-.112-1.125,4.714,4.714,0,0,1,.112-1.125h-1.4a4.936,4.936,0,0,1-.112-1.125,4.72,4.72,0,0,1,.112-1.125h-.842a4.936,4.936,0,0,1-.112-1.125,4.714,4.714,0,0,1,.112-1.125h.842a4.936,4.936,0,0,1-.112-1.125,4.714,4.714,0,0,1,.112-1.125h1.4a4.933,4.933,0,0,1-.112-1.125,4.717,4.717,0,0,1,.112-1.125h6.734a4.746,4.746,0,0,1,.112,1.125,4.964,4.964,0,0,1-.112,1.125A4.745,4.745,0,0,1,524.156,64.594Z" transform="translate(-432.219 -51.384)"/><path class="f" d="M593.885,65.709A4.743,4.743,0,0,1,594,66.833a4.961,4.961,0,0,1-.112,1.125h-5.892a4.733,4.733,0,0,1,.112,1.125,4.954,4.954,0,0,1-.112,1.125h4.769a4.743,4.743,0,0,1,.112,1.125,4.961,4.961,0,0,1-.112,1.125h-5.61a4.929,4.929,0,0,1-.112-1.125,4.711,4.711,0,0,1,.112-1.125h-1.4a4.933,4.933,0,0,1-.112-1.125,4.717,4.717,0,0,1,.112-1.125h-.842a4.936,4.936,0,0,1-.112-1.125,4.717,4.717,0,0,1,.112-1.125h.842a4.933,4.933,0,0,1-.112-1.125,4.711,4.711,0,0,1,.112-1.125h1.4a4.929,4.929,0,0,1-.112-1.125,4.714,4.714,0,0,1,.112-1.125h5.61a4.746,4.746,0,0,1,.112,1.125,4.961,4.961,0,0,1-.112,1.125h1.125A4.743,4.743,0,0,1,594,64.584,4.965,4.965,0,0,1,593.885,65.709Zm-2.357-1.125a4.714,4.714,0,0,1,.112-1.125h-3.647a4.733,4.733,0,0,1,.112,1.125,4.954,4.954,0,0,1-.112,1.125h3.647a4.933,4.933,0,0,1-.112-1.123Z" transform="translate(-490.838 -51.376)"/></g></svg>