<svg xmlns="http://www.w3.org/2000/svg" viewBox="-747.5 2334.3 74.063 88.239"><defs><style>.a{fill:#eee;stroke:rgba(0,0,0,0);opacity:0.2;}</style></defs><path class="a" d="M62.063,36.61h-10.9a45.877,45.877,0,0,1,1.09,10.9,48.052,48.052,0,0,1-1.09,10.9h10.9a45.878,45.878,0,0,1,1.09,10.9,48.052,48.052,0,0,1-1.09,10.9,45.878,45.878,0,0,1,1.09,10.9,48.052,48.052,0,0,1-1.09,10.9H34.8a48.051,48.051,0,0,1-1.09-10.9,45.878,45.878,0,0,1,1.09-10.9,48.051,48.051,0,0,1-1.09-10.9,45.878,45.878,0,0,1,1.09-10.9,48.052,48.052,0,0,1-1.09-10.9,45.877,45.877,0,0,1,1.09-10.9h10.9a48.052,48.052,0,0,1-1.09-10.9,45.878,45.878,0,0,1,1.09-10.9H62.063a45.878,45.878,0,0,1,1.09,10.9A48.052,48.052,0,0,1,62.063,36.61Zm44.71,32.715a48.053,48.053,0,0,1-1.09,10.9,45.879,45.879,0,0,1,1.09,10.9,48.053,48.053,0,0,1-1.09,10.9H78.42a48.051,48.051,0,0,1-1.09-10.9,45.878,45.878,0,0,1,1.09-10.9,48.051,48.051,0,0,1-1.09-10.9,45.878,45.878,0,0,1,1.09-10.9,48.052,48.052,0,0,1-1.09-10.9,45.877,45.877,0,0,1,1.09-10.9h10.9a48.052,48.052,0,0,1-1.09-10.9,45.878,45.878,0,0,1,1.09-10.9h16.357a45.879,45.879,0,0,1,1.09,10.9,48.053,48.053,0,0,1-1.09,10.9h-10.9a45.877,45.877,0,0,1,1.09,10.9,48.051,48.051,0,0,1-1.09,10.9h10.9A45.879,45.879,0,0,1,106.773,69.324Z" transform="translate(-780.71 2320)"/></svg>