<svg xmlns="http://www.w3.org/2000/svg" viewBox="-1287.047 870.953 20.62 20.62"><defs><style>.a{fill:#fff;}</style></defs><path class="a" d="M6.12,16.835a1.692,1.692,0,0,0,.94-3.1l-1.331-.887a2.712,2.712,0,1,1-1.995,2.736l1.449.966A1.684,1.684,0,0,0,6.12,16.835ZM17.183,0A3.447,3.447,0,0,1,20.62,3.437V17.183a3.446,3.446,0,0,1-3.437,3.437H3.437A3.446,3.446,0,0,1,0,17.183V13.095l2.443,1.629a4.069,4.069,0,1,0,8.007.031l5.015-4.49h0a4.511,4.511,0,1,0-5.109-5.109h0L6.234,11.4a4.06,4.06,0,0,0-1.847.552L0,9.029V3.437A3.447,3.447,0,0,1,3.437,0Zm.859,5.8a3.222,3.222,0,1,0-3.222,3.222A3.222,3.222,0,0,0,18.042,5.8Zm-5.155,0a1.933,1.933,0,1,1,1.933,1.933A1.933,1.933,0,0,1,12.887,5.8Z" transform="translate(-1287.047 870.953)"/></svg>